<?xml version="1.0" encoding="utf-8"?>
<!-- Generator: Adobe Illustrator 24.1.1, SVG Export Plug-In . SVG Version: 6.00 Build 0)  -->
<svg version="1.1" id="layer_1" xmlns="http://www.w3.org/2000/svg" xmlns:xlink="http://www.w3.org/1999/xlink" x="0px" y="0px"
	 viewBox="0 0 98.4 98.4" style="enable-background:new 0 0 98.4 98.4;" xml:space="preserve">
<style type="text/css">
	.st0{display:none;fill:url(#SVGID_1_);}
	.st1{fill:#8DCEFC;}
	.st2{fill:none;stroke:#457AB5;stroke-width:2;stroke-miterlimit:10;}
	.st3{fill:none;stroke:url(#SVGID_2_);stroke-width:2;stroke-miterlimit:10;}
	.st4{fill:url(#SVGID_3_);}
	.st5{fill:#2E7ACC;}
	.st6{display:none;fill:#E33E06;}
	.st7{display:none;fill:#8C8C8C;}
</style>
<g id="layer_2">
	<g id="layer_1-2">
		
			<radialGradient id="SVGID_1_" cx="49.22" cy="11913.2363" r="44.62" gradientTransform="matrix(1 0 0 7.000000e-02 0 -734.85)" gradientUnits="userSpaceOnUse">
			<stop  offset="0" style="stop-color:#8C8C8C"/>
			<stop  offset="0.13" style="stop-color:#919191;stop-opacity:0.95"/>
			<stop  offset="0.32" style="stop-color:#A0A0A0;stop-opacity:0.83"/>
			<stop  offset="0.54" style="stop-color:#B8B8B8;stop-opacity:0.61"/>
			<stop  offset="0.78" style="stop-color:#DADADA;stop-opacity:0.32"/>
			<stop  offset="1" style="stop-color:#FFFFFF;stop-opacity:0"/>
		</radialGradient>
		<ellipse class="st0" cx="49.2" cy="99.4" rx="44.6" ry="3.2"/>
		<path class="st1" d="M49.2,1C22.6,1,1,22.6,1,49.2s21.6,48.2,48.2,48.2s48.2-21.6,48.2-48.2S75.9,1,49.2,1C49.2,1,49.2,1,49.2,1z
			 M34,77.1c-5.8,0-10.5-4.7-10.5-10.4c0-5.8,4.7-10.5,10.4-10.5s10.5,4.7,10.5,10.4c0,0,0,0,0,0C44.4,72.4,39.8,77,34,77.1z
			 M59.1,73.1c-3.6,0-6.5-2.9-6.5-6.5l0,0c0-9.8-8.5-18.1-18.6-18.1c-3.6,0-6.5-2.9-6.5-6.5s2.9-6.5,6.5-6.5
			c17.1,0,31.6,14.2,31.6,31.1C65.6,70.1,62.7,73.1,59.1,73.1C59.1,73.1,59.1,73.1,59.1,73.1L59.1,73.1z M79.7,67h-0.6
			c-3.4,0-6.2-2.6-6.5-6c-1.3-15.7-13.1-32.5-32.3-32.5c-3.6,0-6.5-2.9-6.5-6.5s2.9-6.5,6.5-6.5C64,15.5,83.5,34.6,85.7,60
			C85.9,63.6,83.3,66.7,79.7,67z"/>
		<circle class="st2" cx="49.2" cy="49.2" r="48.2"/>
		
			<radialGradient id="SVGID_2_" cx="-266.1076" cy="1088.019" r="23.26" gradientTransform="matrix(0.95 -0.32 0.32 0.95 -30.11 -1098.03)" gradientUnits="userSpaceOnUse">
			<stop  offset="0" style="stop-color:#FFFFFF"/>
			<stop  offset="0.21" style="stop-color:#FFFFFF;stop-opacity:0.99"/>
			<stop  offset="0.34" style="stop-color:#FFFFFF;stop-opacity:0.96"/>
			<stop  offset="0.46" style="stop-color:#FFFFFF;stop-opacity:0.9"/>
			<stop  offset="0.56" style="stop-color:#FFFFFF;stop-opacity:0.81"/>
			<stop  offset="0.66" style="stop-color:#FFFFFF;stop-opacity:0.71"/>
			<stop  offset="0.74" style="stop-color:#FFFFFF;stop-opacity:0.58"/>
			<stop  offset="0.83" style="stop-color:#FFFFFF;stop-opacity:0.42"/>
			<stop  offset="0.91" style="stop-color:#FFFFFF;stop-opacity:0.24"/>
			<stop  offset="0.99" style="stop-color:#FFFFFF;stop-opacity:4.000000e-02"/>
			<stop  offset="1" style="stop-color:#FFFFFF;stop-opacity:0"/>
		</radialGradient>
		<path class="st3" d="M35.2,5.9c23.9-7.8,50,5.4,57.4,29"/>
		
			<radialGradient id="SVGID_3_" cx="61.19" cy="46.07" r="54.56" gradientTransform="matrix(1 0 0 -1 0 104)" gradientUnits="userSpaceOnUse">
			<stop  offset="0" style="stop-color:#7AACDF"/>
			<stop  offset="0.27" style="stop-color:#70A6DD"/>
			<stop  offset="0.73" style="stop-color:#5496D9"/>
			<stop  offset="1" style="stop-color:#408BD6"/>
		</radialGradient>
		<path class="st4" d="M49.2,4.6c-24.6,0-44.6,20-44.6,44.6s20,44.6,44.6,44.6s44.6-20,44.6-44.6v0C93.8,24.6,73.9,4.6,49.2,4.6z
			 M34,77.1c-5.8,0-10.5-4.7-10.5-10.4c0-5.8,4.7-10.5,10.4-10.5s10.5,4.7,10.5,10.4c0,0,0,0,0,0C44.4,72.4,39.8,77,34,77.1z
			 M59.1,73.1c-3.6,0-6.5-2.9-6.5-6.5l0,0c0-9.8-8.5-18.1-18.6-18.1c-3.6,0-6.5-2.9-6.5-6.5s2.9-6.5,6.5-6.5
			c17.1,0,31.6,14.2,31.6,31.1C65.6,70.1,62.7,73.1,59.1,73.1C59.1,73.1,59.1,73.1,59.1,73.1L59.1,73.1z M79.7,67h-0.6
			c-3.4,0-6.2-2.6-6.5-6c-1.3-15.7-13.1-32.5-32.3-32.5c-3.6,0-6.5-2.9-6.5-6.5s2.9-6.5,6.5-6.5C64,15.5,83.5,34.6,85.7,60
			C85.9,63.6,83.3,66.7,79.7,67z"/>
		<path class="st5" d="M79.7,67h-0.6c-3.4,0-6.2-2.6-6.5-6c-0.5-5.2-2-10.3-4.4-15c-10.3-8.8-23.4-13.6-37-13.6
			c-8.8,0-17.4,2.1-25.3,6c-6,23.9,8.5,48.1,32.4,54.1C56.2,97,75,90,85.6,75c-0.7-3.1-1.6-6.1-2.9-9C81.8,66.6,80.8,66.9,79.7,67z
			 M34,77.1c-5.8,0-10.5-4.7-10.5-10.4c0-5.8,4.7-10.5,10.4-10.5s10.5,4.7,10.5,10.4c0,0,0,0,0,0C44.4,72.4,39.8,77,34,77.1z
			 M59.1,73.1c-3.6,0-6.5-2.9-6.5-6.5l0,0c0-9.8-8.5-18.1-18.6-18.1c-3.6,0-6.5-2.9-6.5-6.5s2.9-6.5,6.5-6.5
			c17.1,0,31.6,14.2,31.6,31.1C65.6,70.1,62.7,73.1,59.1,73.1C59.1,73.1,59.1,73.1,59.1,73.1L59.1,73.1z"/>
		<path class="st6" d="M115.1,24.9V10.2h4.3v14.6h6.1v4.2h-6.1v36h-4.3v-36h-6.5v-4.2L115.1,24.9z M150.8,47.8v-3h4.2v3h7.9v3.8H155
			v8.8c0,3.1-1.6,4.7-4.6,4.7h-6.6l-0.9-4c2.1,0.2,4.1,0.3,6.1,0.3c1.2,0,1.9-0.7,1.9-2v-7.7h-26v-3.8H150.8z M141.8,14.4v-4.1h4.2
			v4.1h7c-0.5-1.2-1.1-2.4-1.7-3.6l3.7-0.6c0.6,1.4,1.1,2.8,1.6,4.2h5.2v3.7H146v4.1h13.6V44h-4v-4.2H146v3.8h-4.1v-3.8h-9.6V44h-4
			V22.2h13.6v-4.1h-15.7v-3.7L141.8,14.4z M142,59.4l-2.7,2.7c-2.5-2.9-5.3-5.4-8.3-7.7l2.6-2.5C136.7,54.1,139.5,56.6,142,59.4z
			 M141.9,29.8v-4.2h-9.6v4.2L141.9,29.8z M141.9,36.9v-4.1h-9.6v4.1L141.9,36.9z M146,29.8h9.6v-4.2H146V29.8z M146,36.9h9.6v-4.1
			H146V36.9z"/>
		<path class="st6" d="M192.1,20.7c-0.9,1.4-1.8,2.7-2.8,4h22.1v3.5c-2.8,3.7-6.5,6.8-10.6,9.1c7.1,2.7,14.5,4.3,22,4.7l-1,3.9
			c-8.8-0.5-17.5-2.7-25.5-6.4c-7.1,3.2-16,5.8-26.8,7.6l-1.6-3.8c9.7-1.6,17.7-3.5,24.1-6.1c-3-1.8-5.8-3.8-8.5-6.2
			c-2.3,2.1-4.8,4-7.5,5.6l-2.8-3.4c5.8-3.3,10.8-8,14.6-13.5L192.1,20.7z M219.8,26h-4.4v-7.5h-40V26H171V14.6h22
			c-0.7-1.4-1.4-2.8-2.2-4.2l4.7-0.7c0.7,1.4,1.4,3.1,2.1,4.9h22.1L219.8,26z M213.1,65.4h-4.2v-2.6h-25.8v2.6h-4.2V46.5h34.2V65.4z
			 M208.9,58.9v-8.4h-25.8v8.4L208.9,58.9z M206.3,28.3h-20.1l-0.2,0.2c3.2,2.6,6.7,4.9,10.4,6.7C200,33.5,203.4,31.1,206.3,28.3z"
			/>
		<path class="st6" d="M280,65.1h-4.3v-2.4h-40.5v2.4h-4.3V12.8H280V65.1z M275.7,58.9V16.8h-40.5v42.1H275.7z M271.5,32.6v3.8h-9.6
			v12.3c0,1.4,0.6,2.2,1.9,2.2h2.2c0.7,0,1.4-0.1,1.9-0.5c0.7-0.4,1.1-2.5,1.4-6.2l3.6,1.2c-0.5,4.4-1.1,7.1-1.9,8s-2.2,1.1-4.1,1.1
			h-4.3c-1.3,0.1-2.5-0.4-3.4-1.3c-0.8-1-1.3-2.2-1.2-3.5V36.4h-5.7c-0.5,4.9-1.7,8.7-3.5,11.5c-2,3.1-5.2,5.5-9.4,7.3l-2-3.5
			c3.3-1.1,6.2-3.3,8.2-6.1c1.6-2.8,2.6-5.9,2.9-9.2h-8.9v-3.8H271.5z M268.1,22.3v3.8h-25.3v-3.8L268.1,22.3z"/>
		<path class="st7" d="M123.4,79c2.1-0.1,4.1,0.8,5.3,2.5l-1.5,1.4c-0.8-1.2-2.2-1.9-3.7-1.9c-3.1,0-5,2.4-5,5.6s1.9,5.6,5,5.6
			c1.5,0,2.9-0.7,3.7-1.9l1.5,1.4c-1.2,1.7-3.2,2.6-5.3,2.5c-4.3,0-7.2-3.3-7.2-7.6S119.1,79,123.4,79z"/>
		<path class="st7" d="M141.6,84.4c0-2.6-1.3-3.4-3.2-3.4c-1.7,0.1-3.3,0.9-4.3,2.3v10.6h-2.3V79.3h2.3v2.1c1.3-1.5,3.2-2.4,5.2-2.4
			c3,0,4.6,1.5,4.6,4.7v10.2h-2.3V84.4z"/>
		<path class="st7" d="M148.4,73.8h2.3v7.7c1.1-1.6,2.9-2.5,4.9-2.5c3.8,0,6.4,3,6.4,7.6s-2.7,7.6-6.4,7.6c-1.9,0-3.8-1-4.9-2.5v2.2
			h-2.3V73.8z M154.9,92.2c2.9,0,4.7-2.4,4.7-5.6s-1.7-5.6-4.7-5.6c-1.7,0-3.3,0.9-4.3,2.3v6.6C151.6,91.3,153.2,92.2,154.9,92.2
			L154.9,92.2z"/>
		<path class="st7" d="M165.6,73.8h2.3v20h-2.3V73.8z"/>
		<path class="st7" d="M171.5,86.6c0-4.2,2.8-7.6,7.2-7.6s7.2,3.4,7.2,7.6s-2.8,7.6-7.2,7.6S171.5,90.8,171.5,86.6z M183.5,86.6
			c0-2.9-1.7-5.6-4.8-5.6s-4.8,2.6-4.8,5.6s1.7,5.6,4.8,5.6S183.5,89.6,183.5,86.6L183.5,86.6z"/>
		<path class="st7" d="M190.6,95.9c1.1,1.4,2.9,2.1,4.7,2c2.4,0,4.6-1.2,4.6-4.3v-2.1c-1.1,1.6-2.9,2.5-4.9,2.6
			c-3.8,0-6.4-2.8-6.4-7.5s2.6-7.5,6.4-7.5c1.9,0,3.8,1,4.9,2.5v-2.2h2.3v14.1c0,4.8-3.4,6.3-6.9,6.3c-2.2,0.2-4.3-0.6-5.9-2.2
			L190.6,95.9z M200,83.3c-1-1.4-2.6-2.3-4.3-2.3c-2.9,0-4.6,2.3-4.6,5.5s1.7,5.5,4.6,5.5c1.7,0,3.3-0.9,4.3-2.3V83.3z"/>
		<path class="st7" d="M206.6,90.3c1.2,1.3,3,2.1,4.8,2.1c2.2,0,3.4-1,3.4-2.4c0-1.6-1.8-2.1-3.7-2.6c-2.5-0.6-5.3-1.2-5.3-4.2
			c0-2.3,1.9-4.2,5.4-4.2c2-0.1,3.9,0.7,5.4,2.1l-1,1.6c-1.1-1.2-2.7-1.9-4.3-1.8c-2,0-3.2,0.9-3.2,2.2s1.6,1.9,3.5,2.3
			c2.5,0.6,5.4,1.3,5.4,4.5c0,2.4-2,4.4-5.7,4.4c-2.2,0.1-4.3-0.7-5.9-2.3L206.6,90.3z"/>
		<path class="st7" d="M221.9,90.8c0.9,0,1.7,0.7,1.7,1.6s-0.7,1.7-1.6,1.7c-0.9,0-1.7-0.7-1.7-1.6c0,0,0,0,0,0l0,0
			C220.2,91.6,221,90.8,221.9,90.8z"/>
		<path class="st7" d="M233.8,79c2.1-0.1,4.1,0.8,5.3,2.5l-1.5,1.4c-0.8-1.2-2.2-1.9-3.7-1.9c-3.1,0-5,2.4-5,5.6s1.9,5.6,5,5.6
			c1.5,0,2.9-0.7,3.7-1.9l1.5,1.4c-1.2,1.7-3.2,2.6-5.3,2.5c-4.3,0-7.2-3.3-7.2-7.6S229.4,79,233.8,79z"/>
		<path class="st7" d="M241.4,86.6c0-4.2,2.8-7.6,7.2-7.6s7.2,3.4,7.2,7.6s-2.7,7.6-7.2,7.6S241.4,90.8,241.4,86.6z M253.4,86.6
			c0-2.9-1.7-5.6-4.8-5.6s-4.8,2.6-4.8,5.6s1.7,5.6,4.8,5.6S253.4,89.6,253.4,86.6L253.4,86.6z"/>
		<path class="st7" d="M276.9,84c0-1.8-0.8-3-2.7-3c-1.6,0.1-3,0.9-3.8,2.2v10.6h-2.3V84c0-1.8-0.8-3-2.7-3c-1.5,0.1-2.9,1-3.8,2.3
			v10.6h-2.3V79.3h2.3v2.1c1.1-1.5,2.8-2.4,4.7-2.4c1.8-0.2,3.4,1,3.9,2.7c1.1-1.6,2.9-2.6,4.9-2.7c2.6,0,4,1.5,4,4.4v10.5h-2.3
			L276.9,84z"/>
	</g>
</g>
</svg>
